<?xml version="1.0" encoding="UTF-8"?>
<svg viewBox="0 0 1024 768" xmlns="http://www.w3.org/2000/svg">
 <path d="m477 254.5c2.7987-3.6203 5.0504-7.6053 8.75-10.625 7.7724-4.497 16.642-6.8 25.375-9.375-6.9227 0.20796-14.074-0.38272-20.375 2-8.5125 0.38418-10.769 4.5217-11 9.875z" stroke="#000"/>
 <path d="m533.62 230c-13.47-13.988-30.165-17.438-48.625-15.125-4.8405 0.43825-8.1861-3.6084-11.75-7-6.6012-8.6739-32.112-25.81-61 0.125-9.786 8.3209-17.974 19.038-26.5 29.25l-2-1.375c8.8128-12.37 17.407-24.983 29.125-34.125 18.468-14.09 36.395-24.015 67.5-1 2.9262 1.8258 4.8655 4.966 6.125 8.125 9.0833 0.20916 18.167-0.16579 27.25 2.25 10.789 3.0505 16.486 10.121 21 18.125z" stroke="#000"/>
 <path d="m463.38 214.62c1.5857-4.2392-0.13457-5.379-3.875-4.625l-3.25 3.75-1.375-1.125 4.5-5.375c2.625-0.9094 5.25-1.4268 7.875 0.625 1.6006 2.4404 2.5197 4.7672 2.125 6.875-1.3308 5.8027-5.3471 2.7334-6-0.125z" stroke="#000"/>
 <path d="m424.38 280.25c-47.28 26.37-24.966 77.069-8.9498 99.018 26.577 31.032 97.603 50.329 122.51 55.508 7.7948 0.70281 13.944 3.7826 17.501 10.607l-1.9446 1.7678c-6.1138-7.6797-11.654-6.7619-17.324-7.7782-34.784-5.554-66.151-19.65-97.227-34.471-20.027-12.541-40.018-25.239-52.679-70.004-3.5952-26.316 2.0358-49.47 31.289-64.524 11.56-4.1081 18.989 1.645 6.8284 9.8764z" stroke="#000"/>
 <path d="m377.75 263.25c-6.0929 8.5424-12.387 16.924-16.875 26.75-1.6779 4.529-1.0508 8.8019 0.25 13 1.2071 0.28571 2.4849 0.92444 3.375-0.375 3.8392-2.2203 5.8933-5.8687 8.125-9.375 0.72256-2.3282-0.97176-1.2729-1.75-1.5l-6.375 6.875c-1.6835 0.35514-1.2453-0.98711-1.375-1.875 3.7528-11.984 10.724-21.823 16.25-32.625z" stroke="#000"/>
 <path d="m371.5 299.25c-12.305 9.4176-13.835 25.151-16.875 40 0.875 1.5794 1.75 1.1979 2.625 0.125 1.2609-15.161 7.8842-27.641 15.75-39.5z" stroke="#000"/>
 <path d="m369.25 323.12c-0.85817 24.482 15.082 33.648 24.375 48.875 0.86236-0.026 2.4214 0.92331 1.75-1.25-10.349-15.534-20.912-30.972-24.125-49.75-2.0355-1.1168-1.888 0.67708-2 2.125z" stroke="#000"/>
 <path d="m489.25 458c0.98115-1.7679 2.0618-2.342 3.375-0.125l-0.625 14.875c-0.95833 1.2326-1.9167 0.46396-2.875-0.25-1.3838-5.0925-2.1216-10.068 0.125-14.5z" stroke="#000"/>
 <path d="m492.5 510c2.076 6.531 8.5938 5.887 14.875 5.625 2.6001 0.17483 5.382-0.014 6.375 3.375 1.875 1.1187 3.75 0.9082 5.625 0.375 0.39879-2.252 2.5014-1.6644 4.875-0.625l9.25 6.5c0.99993-0.0501 1.6534-0.3773 1-1.75-1.7396-3.7153-4.8937-6.4875-8.625-8.875-3.1932-1.8828-6.2912-3.2894-8.5-0.25-1.125 1.4269-2.25 0.97909-3.375-0.25-0.14655-3.9839-3.6252-3.7271-7.375-3.125-6.5218 2.154-10.211 0.53194-12.75-2.625-1.1408-0.31142-1.5674 0.26995-1.375 1.625z" stroke="#000"/>
 <path d="m489.12 480.25c-6.0188 8.427-13.005 16.163-16.875 26.125-10.534 6.492-26.092 7.5742-40.75 9.625-2.5816 1.3681-4.4592 3.2993-5.375 6-3.625-0.68356-7.25-0.0968-10.875 0.875-2.8788 2.2348-5.6579 4.5551-6.25 8.75-0.82693 2.3397-1.4166 4.9167-1.25 8.25 0.39105 0.86851 0.82901 1.5963 1.875 0.5l2.125-8.25c0.90339-1.7349 2.2223-2.6388 4.125-2.375 6.1172 0.78052 7.6837-2.5347 10.75-4.5l4.5-5.5c11.055-0.92543 21.405 0.32455 31.25-3.625 1.7079-2.4689 7.6785-3.872 11.75-5.75 7.137-6.5329 13.802-13.875 18.625-24.375-0.77928-2.7358 0.45614-9.3178-3.625-5.75z" stroke="#000"/>
 <path d="m462.5 518.5c-6.625-0.30199-13.25 0.469-19.875 2.5l-6.125 6.875-7.875 1.375c-2.1685 0.90266-4.6279 6.1683-7.125 12-0.5939 2.0417-1.1369 4.0833-0.75 6.125 0.625 0.91531 1.25 1.3964 1.875 0 1.75-4.6027 3.5-9.4506 5.25-10.5 6.2184-0.62534 9.5427-4.408 12.125-9 7.5427-1.2604 16.695-1.0579 20.875-5.375 1.7076-1.5665 1.5073-2.7515 1.625-4z" stroke="#000"/>
 <path d="m666 461.62c22.769 26.165 50.643 45.833 76.75 67.75 5.7493 4.644 10.641 7.5822 15.75 10.625 6.2165 2.1143 13.161 2.3628 16.5-2.75 0.66415-2.4567-1.318-3.1491-2.5-4.375-3.7119 0.86653-6.6765-0.88231-9.75-2.25l-81.875-62.875c-4.2545-3.7693-8.1851-5.5328-12.75-7.75-1.1258 0.12422-2.8729-0.37291-2.125 1.625z" stroke="#000"/>
 <path d="m468.5 263.5c2.3844 5.1653 6.7125 7.901 11.75 9.75 44.06 27.552 74.123 66.947 110.5 101 33.732 34.176 68.441 58.588 103.5 79.5 2.8965 0.19084 3.7683-0.77524 2-3.25-50.256-26.168-87.243-70.582-127.5-110.5-22.021-23.422-43.297-47.242-75-65.5-7.7763-4.8772-19.233-4.2341-23.25-14.75z" stroke="#000"/>
</svg>
